Coordinates
version=1
nRows=6
nColumns=46
inDegrees=yes

Units are S.I. units (second, meters, Newtons, ...)
Angles are in degrees.

endheader
time	pelvis_tilt	pelvis_list	pelvis_rotation	pelvis_tx	pelvis_ty	pelvis_tz	bb_angle	bb_tx	bb_ty	bb_tz	hip_flexion_r	hip_adduction_r	hip_rotation_r	knee_angle_r	knee_angle_r_beta	ankle_angle_r	subtalar_angle_r	mtp_angle_r	crank_angle_r	hip_flexion_l	hip_adduction_l	hip_rotation_l	knee_angle_l	knee_angle_l_beta	ankle_angle_l	subtalar_angle_l	mtp_angle_l	crank_angle_l	lumbar_extension	lumbar_bending	lumbar_rotation	arm_flex_r	arm_add_r	arm_rot_r	elbow_flex_r	pro_sup_r	wrist_flex_r	wrist_dev_r	arm_flex_l	arm_add_l	arm_rot_l	elbow_flex_l	pro_sup_l	wrist_flex_l	wrist_dev_l
      2.50500000	    -32.23758709	      1.13009451	     31.75448232	      0.43000508	      1.05400401	     -0.18071186	      0.00000000	      0.50000000	      0.00000000	      0.25000000	     39.73994770	    -15.27043640	    -13.41729354	     56.00517450	      0.97747469	    -29.10172658	    -19.27477038	      0.00000000	      0.00000000	     79.35131235	      9.49360996	      5.07253003	     90.06233650	      1.57188430	     29.11104911	     15.24031463	      0.00000000	      0.00000000	    -49.33553821	     -4.07222360	    -22.29908918	     30.38691247	     -2.62406784	      5.35841634	     68.15762794	     50.58556801	      0.00000000	      0.00000000	     47.26662918	     -9.38762435	     13.03771821	     89.11748001	     49.59137176	      0.00000000	      0.00000000
      2.51000000	    -32.15484394	      1.09047134	     31.39736895	      0.43083341	      1.05276420	     -0.18014611	      0.00000000	      0.50000000	      0.00000000	      0.25000000	     39.93633514	    -15.09621642	    -13.50292545	     57.33550504	      1.00069334	    -28.00157140	    -19.08469258	      0.00000000	      0.00000000	     78.91512569	      9.18724250	      5.00286146	     89.04052400	      1.55405031	     29.09291299	     15.14439404	      0.00000000	      0.00000000	    -49.33753679	     -4.19211264	    -22.30233030	     30.39476454	     -2.41663174	      5.60916723	     68.25091160	     50.67705385	      0.00000000	      0.00000000	     46.67557283	     -9.61223800	     12.63659001	     89.93329804	     49.68461179	      0.00000000	      0.00000000
      2.51500000	    -32.00000891	      1.04242922	     30.95508534	      0.43190120	      1.05151979	     -0.17959686	      0.00000000	      0.50000000	      0.00000000	      0.25000000	     40.02859551	    -14.80148544	    -13.59658629	     58.61253789	      1.02298177	    -27.05207347	    -19.39407821	      0.00000000	      0.00000000	     78.38681934	      8.88191465	      5.03738589	     88.06258141	      1.53698199	     29.09314431	     14.77733744	      0.00000000	      0.00000000	    -49.34672074	     -4.38132903	    -22.05454305	     30.35503222	     -2.32519296	      5.71576296	     68.23666292	     50.70329942	      0.00000000	      0.00000000	     46.40404776	     -9.64964221	     12.34733900	     90.30373486	     49.71672246	      0.00000000	      0.00000000
      2.52000000	    -31.86980360	      1.04306326	     30.44710917	      0.43305321	      1.05025070	     -0.17908554	      0.00000000	      0.50000000	      0.00000000	      0.25000000	     40.14830734	    -14.57512448	    -13.62404499	     59.97093853	      1.04669033	    -25.76046519	    -19.27829478	      0.00000000	      0.00000000	     77.80941486	      8.54178279	      5.05185412	     87.07013506	      1.51966054	     29.08633908	     14.45971331	      0.00000000	      0.00000000	    -49.36694472	     -4.66265388	    -21.86512141	     30.30343801	     -2.21372888	      5.85227321	     68.26306640	     50.74306178	      0.00000000	      0.00000000	     45.84789867	     -9.58148062	     11.93201608	     90.87191027	     49.77108465	      0.00000000	      0.00000000
      2.52500000	    -31.80620169	      1.08615703	     29.92202594	      0.43422814	      1.04896498	     -0.17870438	      0.00000000	      0.50000000	      0.00000000	      0.25000000	     40.32913807	    -14.43039923	    -13.53993390	     61.39691143	      1.07157825	    -24.12702951	    -18.50750980	      0.00000000	      0.00000000	     77.22706242	      8.20558666	      4.97518278	     86.02320148	      1.50138810	     29.08043577	     14.15038407	      0.00000000	      0.00000000	    -49.37590882	     -4.94451277	    -21.83470275	     30.29254328	     -1.99773470	      6.11574908	     68.28510731	     50.81148115	      0.00000000	      0.00000000	     45.07397034	     -9.47647604	     11.08551704	     91.88401895	     49.85258244	      0.00000000	      0.00000000
      2.53000000	    -31.63157275	      1.05808128	     29.40509289	      0.43539807	      1.04776304	     -0.17840198	      0.00000000	      0.50000000	      0.00000000	      0.25000000	     40.37659765	    -14.18032835	    -13.56744639	     62.76539798	      1.09546285	    -22.53802967	    -18.15013494	      0.00000000	      0.00000000	     76.54943517	      7.84892574	      5.02252847	     84.98563074	      1.48327907	     29.08195756	     13.84689980	      0.00000000	      0.00000000	    -49.38827348	     -5.11468353	    -21.85392035	     30.45174878	     -1.74850410	      6.51400423	     68.10054168	     50.87047727	      0.00000000	      0.00000000	     44.19313023	     -9.46643647	     10.28333472	     92.80149634	     49.91858038	      0.00000000	      0.00000000
